<?xml version="1.0" standalone="no"?>
<!DOCTYPE svg PUBLIC "-//W3C//DTD SVG 20010904//EN"
 "http://www.w3.org/TR/2001/REC-SVG-20010904/DTD/svg10.dtd">
<svg version="1.0" xmlns="http://www.w3.org/2000/svg"
 width="1024.000000pt" height="1024.000000pt" viewBox="0 0 1024.000000 1024.000000"
 preserveAspectRatio="xMidYMid meet">
<metadata>
Created by potrace 1.14, written by Peter Selinger 2001-2017
</metadata>
<g transform="translate(0.000000,1024.000000) scale(0.100000,-0.100000)"
fill="#000000" stroke="none">
<path d="M827 10224 c-400 -72 -710 -369 -803 -769 -18 -77 -19 -216 -19
-4335 0 -4119 1 -4258 19 -4335 94 -405 406 -700 813 -770 78 -13 571 -15
4323 -13 l4235 3 80 23 c391 110 653 377 741 757 18 77 19 216 19 4340 l0
4260 -23 87 c-45 169 -107 291 -209 413 -112 133 -283 249 -450 304 -163 54
113 51 -4442 50 -3563 -1 -4218 -3 -4284 -15z m4454 -1294 c530 -646 948
-1246 1257 -1805 96 -174 284 -566 350 -730 346 -863 417 -1636 215 -2339
-215 -749 -853 -1221 -1825 -1351 l-48 -6 0 -750 c0 -533 -3 -757 -11 -772
-20 -39 -51 -57 -99 -57 -48 0 -79 18 -99 57 -8 15 -11 239 -11 772 l0 750
-47 6 c-354 46 -600 114 -861 240 -440 213 -753 540 -913 954 -168 437 -208
1024 -108 1585 75 419 233 870 475 1356 338 678 750 1293 1395 2081 90 109
167 198 171 197 4 -2 76 -86 159 -188z"/>
<path d="M4949 8563 c-511 -644 -898 -1231 -1173 -1781 -88 -176 -176 -367
-176 -383 0 -5 48 -9 108 -9 l107 0 244 -244 243 -243 30 14 c48 24 147 14
192 -20 54 -42 79 -98 74 -168 -7 -100 -75 -169 -173 -177 -114 -9 -205 74
-205 187 1 31 7 67 15 81 14 25 10 29 -223 263 l-237 237 -106 0 -107 0 -45
-122 c-132 -361 -210 -669 -248 -993 -17 -138 -17 -511 -1 -630 7 -49 22 -141
34 -204 l21 -113 121 121 121 121 321 0 c319 0 321 0 342 23 18 20 19 25 7 47
-32 58 -10 176 41 221 81 71 220 63 282 -16 51 -64 54 -165 9 -234 -46 -69
-154 -101 -232 -67 -28 12 -32 11 -68 -20 l-37 -34 -322 0 -323 0 -117 -117
c-65 -65 -118 -125 -118 -134 0 -8 14 -58 31 -110 203 -617 718 -994 1529
-1119 183 -29 170 -32 170 45 l0 65 -190 238 -190 237 0 117 0 117 -31 -11
c-51 -18 -134 -5 -181 28 -126 88 -114 283 22 352 79 40 191 22 247 -39 54
-59 69 -164 33 -234 -17 -33 -20 -59 -20 -167 l0 -129 141 -177 c78 -97 148
-184 155 -192 12 -12 14 33 14 287 l0 302 -42 19 c-195 86 -149 375 62 390 32
2 74 -1 93 -7 48 -16 113 -89 127 -143 25 -92 -31 -206 -120 -242 l-40 -16 0
-237 0 -237 138 137 139 137 109 0 110 0 12 34 c17 45 81 102 131 116 154 41
289 -119 222 -265 -67 -148 -274 -151 -342 -6 l-24 50 -90 1 -90 0 -158 -158
-157 -157 0 -138 0 -137 46 0 c80 0 264 31 420 70 505 128 893 397 1104 767
77 134 148 323 194 516 l6 27 -182 0 -183 0 -210 210 -210 210 -47 0 c-46 0
-47 -1 -67 -44 -51 -115 -201 -148 -297 -64 -49 43 -64 77 -64 144 0 212 283
267 365 72 l15 -38 68 0 67 0 210 -210 210 -210 166 0 c143 0 168 2 173 16 3
9 14 70 23 137 23 169 23 543 -1 722 -65 492 -226 984 -497 1527 -50 100 -93
185 -95 187 -3 3 -43 -33 -89 -79 l-85 -85 0 -390 0 -390 -104 -104 c-104
-104 -105 -104 -90 -132 17 -33 19 -131 3 -162 -17 -32 -60 -77 -89 -91 -95
-49 -218 -7 -261 88 -72 160 79 320 246 261 l40 -14 93 92 92 92 0 395 0 395
101 101 101 102 -77 133 c-253 436 -576 903 -964 1393 l-126 158 -3 -443 -2
-443 190 -191 190 -191 0 -366 0 -367 23 -6 c70 -22 127 -102 127 -180 0 -62
-19 -103 -68 -147 -66 -59 -159 -64 -234 -12 -122 85 -92 296 50 339 l22 6 0
352 0 352 -150 150 -150 150 0 -657 0 -658 33 -14 c136 -58 159 -243 40 -333
-33 -25 -45 -28 -113 -28 -68 0 -80 3 -113 28 -114 87 -99 265 27 326 l46 23
0 941 0 942 -155 -155 -155 -155 0 -550 0 -551 34 -12 c45 -17 102 -81 116
-131 41 -154 -119 -289 -265 -222 -148 67 -151 274 -6 342 l50 24 1 565 0 565
190 190 191 191 -3 163 -3 163 -126 -159z m1059 -1311 c57 -53 55 -130 -4
-181 -36 -32 -92 -42 -124 -21 -11 7 -23 1 -47 -22 l-33 -32 0 -481 0 -481
-195 -194 c-107 -106 -195 -200 -195 -207 0 -9 -17 -13 -60 -13 l-60 0 0 -45
0 -45 60 0 60 0 0 -60 0 -60 -60 0 -60 0 0 -45 0 -45 60 0 c57 0 60 -1 60 -25
l0 -25 173 0 172 0 175 175 175 175 186 0 186 0 24 37 c66 103 219 58 219 -63
0 -75 -49 -124 -124 -124 -39 0 -92 38 -107 77 -8 23 -9 23 -181 23 l-173 0
-175 -175 -175 -175 -187 0 c-119 0 -188 -4 -188 -10 0 -6 -27 -10 -60 -10
l-60 0 0 -45 0 -45 60 0 c53 0 60 -2 60 -20 0 -20 7 -20 568 -20 l567 0 16 32
c21 43 77 71 124 62 45 -8 92 -54 100 -98 14 -70 -49 -146 -120 -146 -41 0
-95 35 -108 70 l-11 30 -568 0 c-498 0 -568 -2 -568 -15 0 -12 -13 -15 -60
-15 l-60 0 0 -40 0 -40 60 0 60 0 0 -65 0 -65 -60 0 -60 0 0 -40 0 -40 60 0
c33 0 60 -4 60 -8 0 -5 69 -77 153 -160 l152 -152 230 0 230 0 75 -75 c73 -73
76 -75 106 -64 99 38 194 -69 149 -165 -10 -20 -30 -43 -46 -51 -37 -20 -109
-19 -137 1 -45 31 -65 101 -41 146 10 18 3 29 -57 89 l-68 69 -231 0 -230 0
-142 142 c-112 112 -143 138 -143 120 0 -20 -5 -22 -60 -22 l-60 0 0 -75 0
-75 -170 0 -170 0 0 75 0 75 -60 0 c-47 0 -60 3 -60 15 0 8 -3 15 -8 15 -4 0
-124 -117 -267 -260 l-260 -260 -182 0 -182 0 -16 -29 c-49 -95 -171 -96 -220
-1 -19 37 -19 64 1 106 40 84 180 86 214 4 l12 -30 177 0 176 0 285 285 284
285 53 0 53 0 0 40 0 40 -60 0 -60 0 0 65 0 65 60 0 60 0 0 40 0 40 -60 0
c-47 0 -60 3 -60 15 0 13 -70 15 -570 15 -497 0 -570 -2 -570 -15 0 -8 -13
-29 -28 -46 -57 -63 -165 -43 -198 38 -39 91 41 185 139 166 31 -6 87 -57 87
-79 0 -12 84 -14 570 -14 563 0 570 0 570 20 0 18 7 20 60 20 l60 0 0 45 0 45
-60 0 c-53 0 -60 2 -60 20 0 19 -7 20 -178 20 l-177 0 -280 280 -280 280 -47
0 c-42 0 -49 -3 -62 -28 -22 -43 -52 -64 -98 -69 -113 -12 -178 126 -97 206
57 58 157 44 189 -26 14 -31 17 -33 75 -33 l60 0 280 -280 281 -280 162 0
c135 0 164 3 168 15 5 11 22 15 65 15 l59 0 0 45 0 45 -60 0 -60 0 0 60 0 60
60 0 60 0 0 45 0 45 -60 0 c-42 0 -60 4 -60 13 0 7 -92 104 -205 217 l-205
205 0 350 -1 350 -69 74 -69 73 -35 -12 c-77 -25 -156 34 -156 116 0 123 171
169 226 62 12 -23 15 -46 11 -83 l-5 -52 74 -74 74 -73 0 -356 0 -355 173
-171 172 -170 68 4 67 4 0 39 0 39 170 0 170 0 0 -40 0 -40 60 0 c41 0 60 -4
60 -12 0 -7 74 61 165 152 l165 165 0 482 0 483 38 41 c34 38 37 46 34 91 -7
91 33 137 119 138 38 0 53 -6 77 -28z"/>
<path d="M4702 6829 c-44 -9 -90 -54 -104 -101 -23 -77 37 -164 121 -175 88
-12 171 76 155 163 -14 77 -95 130 -172 113z"/>
<path d="M5457 6665 c-48 -17 -67 -33 -84 -72 -18 -45 -16 -93 7 -130 56 -92
177 -94 237 -4 72 107 -38 249 -160 206z"/>
<path d="M5052 6340 c-66 -41 -89 -116 -55 -187 22 -46 67 -73 123 -73 88 0
147 68 137 157 -11 98 -122 154 -205 103z"/>
<path d="M4334 5861 c-69 -42 -84 -154 -28 -212 114 -119 298 9 227 158 -22
46 -67 73 -123 73 -26 0 -58 -8 -76 -19z"/>
<path d="M5770 5821 c-70 -37 -97 -111 -65 -181 42 -93 160 -113 231 -39 22
23 29 41 32 87 4 52 1 61 -24 91 -50 59 -113 75 -174 42z"/>
<path d="M5805 4886 c-53 -24 -78 -60 -83 -118 -3 -44 0 -59 20 -88 98 -145
320 -16 240 139 -33 67 -113 97 -177 67z"/>
<path d="M4341 4772 c-115 -62 -79 -245 51 -259 81 -9 148 45 155 124 8 85
-53 153 -137 153 -19 0 -51 -8 -69 -18z"/>
<path d="M5046 4117 c-54 -31 -78 -78 -73 -145 3 -43 10 -59 37 -88 19 -19 51
-39 72 -45 53 -14 106 3 148 45 43 45 52 121 22 176 -23 43 -85 80 -132 80
-19 0 -53 -10 -74 -23z"/>
<path d="M4556 4090 c-67 -20 -115 -104 -101 -173 18 -82 109 -141 185 -118
112 33 154 157 82 243 -43 51 -100 67 -166 48z"/>
<path d="M5804 3679 c-64 -19 -110 -102 -92 -168 19 -70 94 -120 161 -107 99
20 147 136 91 221 -30 46 -103 71 -160 54z"/>
</g>
</svg>
